<?xml version="1.0" standalone="no"?>
<!DOCTYPE svg PUBLIC "-//W3C//DTD SVG 20010904//EN"
 "http://www.w3.org/TR/2001/REC-SVG-20010904/DTD/svg10.dtd">
<svg version="1.0" xmlns="http://www.w3.org/2000/svg"
 width="1024.000000pt" height="1024.000000pt" viewBox="0 0 1024.000000 1024.000000"
 preserveAspectRatio="xMidYMid meet">

<g transform="translate(0.000000,1024.000000) scale(0.100000,-0.100000)"
fill="#000000" stroke="none">
<path d="M4605 8640 c-155 -29 -234 -53 -332 -101 -35 -18 -47 -19 -74 -10
-45 16 -141 -9 -259 -66 -75 -36 -110 -61 -173 -123 -73 -72 -83 -78 -131 -84
-160 -21 -296 -176 -340 -388 -9 -42 -16 -99 -16 -125 0 -105 34 -241 87 -346
l24 -48 -31 -32 c-40 -40 -74 -107 -96 -186 l-17 -61 -238 0 c-203 0 -240 -2
-253 -16 -12 -12 -16 -38 -16 -116 l0 -101 53 -48 c28 -27 48 -49 43 -49 -5 0
-3 -7 5 -16 7 -8 18 -63 25 -121 17 -138 35 -189 100 -284 30 -43 54 -82 54
-87 0 -4 -13 -26 -28 -48 -66 -90 -212 -402 -212 -450 0 -45 39 -65 126 -65
35 0 64 -4 64 -8 0 -10 -41 -69 -127 -180 -71 -92 -116 -179 -111 -213 2 -16
13 -26 36 -33 l33 -9 -8 -51 c-10 -65 -10 -289 0 -338 5 -21 23 -55 41 -75 39
-43 48 -85 45 -197 -7 -250 10 -378 75 -548 39 -103 74 -168 111 -207 32 -34
33 -37 38 -145 6 -126 43 -321 85 -445 76 -222 257 -500 318 -488 18 3 36 52
60 163 6 27 8 23 20 -35 52 -248 208 -467 430 -601 69 -41 425 -219 439 -219
2 0 5 35 7 78 l3 77 29 -55 c16 -30 43 -75 59 -100 36 -53 159 -185 201 -217
27 -21 31 -21 47 -7 9 8 59 97 109 197 119 233 203 377 260 440 86 96 322 256
554 375 246 127 399 265 544 492 34 52 82 127 107 166 40 62 48 84 60 160 32
206 68 343 120 448 34 70 36 79 45 237 15 237 25 295 62 354 80 129 74 540
-10 760 -11 28 -23 69 -27 93 l-7 43 69 -6 c59 -5 74 -3 113 17 59 30 60 48
17 185 -19 59 -42 140 -52 179 l-19 71 23 31 c12 18 24 46 27 64 6 36 -23 242
-56 408 -12 58 -27 137 -35 176 -13 68 -42 151 -91 261 l-24 53 26 37 c30 44
27 72 -16 177 -43 103 -95 175 -176 244 l-72 61 -4 68 c-3 57 -12 84 -55 170
-98 194 -146 247 -262 289 -120 43 -146 61 -209 146 -88 119 -238 270 -292
295 -86 39 -186 56 -367 61 -154 4 -172 6 -176 22 -2 10 -17 26 -33 36 -23 16
-51 19 -164 21 -74 1 -157 -2 -185 -7z m158 -156 c31 -3 57 -9 57 -13 0 -5
-39 -21 -87 -37 -49 -15 -101 -38 -118 -49 -16 -12 -38 -24 -48 -28 -12 -4
-17 -16 -15 -35 2 -32 -9 -55 -23 -47 -5 4 -9 2 -9 -3 0 -6 -26 -43 -57 -83
-71 -91 -121 -171 -169 -270 -31 -66 -40 -78 -67 -83 -41 -8 -57 -23 -57 -53
0 -17 -4 -23 -13 -20 -8 3 -14 0 -15 -6 -4 -48 -23 -180 -28 -197 -5 -13 -6
-13 -14 0 -14 21 -12 57 3 63 8 4 6 6 -4 6 -20 1 -21 10 -23 146 -3 325 180
596 464 686 91 28 132 33 223 23z m597 -108 c88 -19 139 -39 211 -81 33 -19
63 -35 68 -35 4 0 16 -6 27 -14 17 -13 6 -15 -103 -18 -67 -2 -118 1 -114 5 5
5 47 9 94 10 142 3 58 36 -94 37 -70 0 -77 -2 -82 -21 -4 -16 -11 -20 -26 -16
-12 3 -21 2 -21 -2 0 -4 -20 -7 -44 -7 -24 -1 -56 -4 -72 -8 -27 -7 -28 -7
-11 12 17 18 15 18 -50 10 -38 -5 -78 -16 -90 -24 -13 -8 -23 -12 -23 -8 0 3
-11 -1 -25 -10 -14 -9 -25 -14 -25 -11 0 3 -31 -10 -69 -30 -52 -25 -70 -40
-73 -57 -2 -16 -10 -23 -25 -24 -13 -1 -20 3 -16 9 8 14 -15 -1 -49 -32 -16
-13 -28 -29 -28 -35 0 -6 9 0 20 14 15 19 20 21 20 9 0 -24 -76 -89 -104 -89
-13 0 -30 -8 -37 -17 -13 -17 -13 -17 6 -3 19 14 19 14 6 -2 -7 -10 -19 -18
-25 -18 -16 0 -99 -100 -151 -180 -45 -71 -100 -214 -89 -232 5 -7 3 -8 -6 -3
-10 6 -12 4 -7 -8 3 -9 1 -19 -4 -23 -16 -10 -2 113 26 221 89 353 365 613
730 689 47 9 195 5 255 -8z m-1220 -2 c0 -4 -20 -28 -44 -54 -38 -41 -146
-230 -131 -230 2 0 -3 -21 -13 -47 -10 -27 -18 -52 -18 -58 0 -36 -18 -126
-26 -131 -5 -3 -9 -67 -9 -142 0 -187 0 -185 11 -196 6 -6 10 -15 10 -21 0 -5
-9 1 -19 15 -11 13 -17 28 -14 32 2 5 1 7 -4 6 -13 -4 -62 51 -83 92 -45 89
-65 245 -48 379 19 148 140 280 313 342 54 19 75 23 75 13z m1280 -128 c0 -3
-4 -8 -10 -11 -5 -3 -10 -1 -10 4 0 6 5 11 10 11 6 0 10 -2 10 -4z m-1823
-160 c-19 -50 -29 -112 -30 -186 -1 -77 -12 -114 -27 -90 -3 6 -7 -49 -8 -122
-1 -72 -4 -133 -6 -135 -9 -9 -24 7 -51 54 -37 63 -46 188 -20 293 23 92 94
195 139 199 4 1 6 -5 3 -13z m2142 -62 c114 -29 206 -77 316 -165 48 -39 105
-81 126 -95 52 -32 50 -47 -3 -28 -51 19 -66 22 -96 23 -13 1 -21 5 -18 10 3
5 -1 12 -10 15 -10 4 -13 2 -9 -7 4 -6 -1 -3 -9 7 -9 11 -16 15 -16 9 0 -14
-13 -11 -63 11 -64 28 -205 46 -191 25 3 -5 -4 -9 -16 -9 -14 0 -19 4 -14 13
6 10 4 10 -7 0 -17 -16 -37 -17 -21 -1 9 9 8 16 -5 30 -15 17 -15 20 -3 29 13
8 13 10 1 18 -11 7 -20 3 -33 -11 -10 -12 -21 -18 -26 -13 -4 4 -1 10 6 12 6
3 12 9 12 14 0 12 -137 11 -160 -1 -14 -7 -34 -7 -65 1 -42 11 -48 10 -66 -10
-18 -19 -18 -21 -2 -21 17 -1 16 -1 -1 -12 -14 -8 -28 -8 -51 1 -23 8 -41 8
-59 1 -16 -6 -26 -6 -26 0 0 5 -7 7 -15 4 -8 -4 -15 -10 -15 -16 0 -5 5 -6 12
-2 7 4 8 3 4 -4 -5 -9 -13 -9 -27 -2 -21 12 -118 -24 -239 -88 -92 -49 -249
-169 -273 -209 -32 -55 -31 -30 1 33 46 89 92 148 167 213 127 110 322 206
480 236 111 22 307 16 414 -11z m-889 -7 c0 -2 -11 -14 -25 -27 -21 -20 -25
-21 -25 -6 0 9 4 15 9 12 5 -3 14 1 21 9 12 14 20 19 20 12z m-164 -113 c-5
-12 -2 -15 11 -10 13 5 10 0 -7 -17 -14 -14 -28 -22 -32 -20 -5 2 -8 -2 -8
-10 0 -8 -10 -22 -22 -33 -14 -12 -18 -13 -10 -3 6 9 9 19 5 22 -3 4 -1 7 5 7
7 0 12 7 12 15 0 8 10 25 23 39 27 29 31 31 23 10z m734 -15 c0 -5 -7 -9 -15
-9 -8 0 -15 7 -15 15 0 9 6 12 15 9 8 -4 15 -10 15 -15z m438 -265 c163 -34
348 -115 431 -190 52 -47 205 -254 188 -254 -4 0 -25 27 -47 60 -22 33 -47 60
-55 60 -8 0 -20 8 -27 18 -13 17 -25 24 -148 89 -63 33 -144 50 -155 33 -7
-11 -45 0 -45 14 0 6 -5 4 -10 -4 -6 -9 -13 -11 -17 -5 -22 29 -65 38 -170 36
-109 -1 -247 -19 -270 -34 -7 -5 -13 -4 -13 2 0 10 130 77 143 73 4 -1 7 5 7
14 0 10 -6 14 -15 11 -8 -4 -17 -2 -20 3 -11 18 -104 11 -205 -15 -113 -29
-165 -49 -234 -94 -57 -36 -86 -40 -86 -12 0 65 143 147 350 202 79 20 281 17
398 -7z m247 -224 c2 -4 -7 -5 -20 -2 -14 2 -25 8 -25 12 0 10 38 1 45 -10z
m75 -24 c0 -2 -9 -2 -20 1 -11 3 -20 9 -20 15 0 5 9 4 20 -2 11 -6 20 -12 20
-14z m-1345 -17 c22 -6 68 -14 102 -19 34 -4 78 -17 98 -28 19 -12 69 -36 110
-53 52 -21 95 -49 141 -90 36 -33 90 -72 120 -86 58 -27 94 -64 94 -94 0 -21
-36 -25 -123 -13 -37 5 -47 11 -51 30 -4 13 -16 29 -27 35 -27 14 -402 33
-649 33 -249 0 -344 -25 -451 -121 -49 -45 -50 -45 -94 -34 -53 13 -195 14
-249 1 -39 -8 -41 -7 -97 45 -72 66 -153 96 -284 104 -64 4 -90 10 -90 19 0
26 105 138 160 171 164 99 323 88 431 -31 30 -34 34 -44 34 -93 l0 -55 35 0
c31 0 48 11 123 83 97 91 172 133 298 168 129 35 294 48 369 28z m545 -38 c0
-6 -4 -13 -10 -16 -5 -3 -10 1 -10 9 0 9 5 16 10 16 6 0 10 -4 10 -9z m752
-119 c65 -28 112 -75 138 -134 60 -140 -21 -359 -166 -444 -41 -24 -44 -25
-68 -8 -34 21 -33 35 5 59 75 49 142 177 140 267 -2 81 -20 111 -86 144 -51
24 -63 26 -127 20 -93 -9 -153 -48 -183 -122 -10 -27 -20 -51 -21 -53 -7 -10
-106 13 -111 25 -10 27 28 104 78 158 48 53 109 91 173 107 51 14 179 3 228
-19z m-3175 -306 c-2 -6 -23 -12 -46 -14 -32 -2 -42 0 -39 10 5 15 45 26 71
20 10 -3 16 -10 14 -16z m603 -14 c58 -29 85 -59 96 -107 7 -29 6 -29 -12 -13
-51 45 -115 62 -257 67 l-137 6 25 29 c14 16 25 33 25 37 0 14 35 18 120 13
66 -4 97 -11 140 -32z m1328 23 c82 -25 157 -104 150 -160 l-3 -25 -95 45
c-58 27 -122 48 -163 55 -200 31 -366 -78 -406 -269 -10 -46 -9 -58 4 -78 24
-36 60 -46 116 -32 38 10 62 10 117 -1 39 -7 88 -10 110 -7 65 8 143 49 207
109 33 30 75 63 93 72 l32 17 0 -39 c0 -165 -77 -293 -204 -341 -154 -58 -332
-25 -444 83 -73 69 -101 145 -116 308 -11 132 66 235 201 267 67 16 343 13
401 -4z m316 -11 c9 -23 -2 -34 -32 -34 -36 0 -56 14 -49 34 9 22 73 22 81 0z
m-2029 -6 c34 -16 32 -31 -15 -77 -22 -22 -40 -46 -40 -53 0 -27 56 -79 105
-97 58 -22 75 -46 75 -111 0 -37 -8 -56 -44 -108 -24 -34 -49 -75 -56 -92
l-12 -29 -28 21 c-72 52 -123 171 -136 310 -10 114 18 185 90 229 37 22 29 22
61 7z m3339 -107 c0 -17 5 -31 10 -31 5 0 7 -3 3 -6 -3 -3 -19 4 -36 17 -23
17 -28 25 -19 31 9 6 5 8 -11 6 -13 -2 -26 2 -28 8 -2 7 5 10 20 7 14 -3 28 0
32 7 11 18 27 -4 29 -39z m-2457 -51 c46 -20 45 -17 63 -145 26 -177 98 -323
194 -395 108 -80 189 -108 346 -116 114 -7 192 9 294 56 55 27 149 117 177
172 50 98 79 217 79 330 0 63 12 82 67 104 34 15 119 18 170 8 29 -6 31 -9 36
-68 3 -35 16 -110 27 -167 21 -100 23 -223 5 -271 -4 -11 5 -29 27 -52 29 -32
42 -38 113 -50 100 -17 192 -53 318 -125 232 -131 338 -265 373 -471 16 -94
14 -159 -6 -230 -11 -39 -49 -105 -56 -98 -2 3 -9 31 -15 63 -17 91 -113 268
-190 350 -57 61 -88 102 -82 109 3 3 -1 6 -11 6 -9 0 -22 11 -28 25 -6 14 -15
25 -20 25 -5 0 -7 4 -4 8 6 10 -46 61 -97 95 -20 14 -32 27 -26 29 17 6 -87
78 -140 99 -28 10 -45 23 -47 35 -2 11 -12 25 -23 33 -12 7 -21 21 -21 29 0
11 -3 13 -10 6 -8 -8 -32 -1 -80 23 -80 39 -123 41 -128 5 -4 -23 20 -69 107
-212 61 -99 70 -126 48 -147 -14 -14 -23 -11 -96 31 -112 64 -125 69 -145 47
-21 -23 -14 -41 36 -107 47 -63 112 -211 129 -293 12 -62 9 -215 -5 -229 -8
-8 -29 16 -91 104 -47 68 -127 134 -161 134 -42 0 -42 -42 1 -129 73 -146 85
-261 39 -376 -14 -36 -30 -67 -34 -70 -4 -3 -13 25 -20 62 -18 107 -107 249
-202 326 -37 30 -38 30 -59 11 -12 -10 -29 -35 -39 -55 -18 -35 -123 -139
-140 -139 -5 0 -14 -26 -20 -57 -19 -101 -51 -207 -67 -225 -19 -21 -48 -11
-106 36 -23 19 -51 36 -62 38 -19 3 -20 -2 -16 -112 2 -87 -1 -129 -14 -172
-9 -32 -20 -58 -24 -58 -9 0 -145 140 -223 230 -31 36 -59 62 -63 59 -3 -4 1
-44 9 -89 9 -45 16 -108 16 -139 0 -74 -19 -167 -34 -169 -6 0 -22 -4 -35 -8
-17 -5 -22 -4 -17 4 4 8 0 12 -12 12 -10 0 -31 11 -45 24 -14 13 -28 22 -30
20 -2 -2 -22 12 -45 31 -54 47 -104 148 -127 258 -14 69 -22 87 -36 87 -11 0
-23 -15 -33 -42 -20 -53 -45 -204 -41 -240 5 -43 -10 -34 -44 26 -44 77 -61
130 -63 202 -2 79 -9 92 -37 72 -27 -19 -78 -84 -87 -111 -7 -22 -8 -22 -15 3
-21 75 3 213 50 279 24 33 96 78 207 129 l70 32 60 -24 c32 -13 89 -37 125
-54 109 -51 179 -64 323 -63 74 0 134 5 140 11 5 5 20 10 33 10 52 0 184 81
251 154 61 66 113 180 119 260 5 59 4 66 -20 90 -29 29 -96 36 -115 13 -6 -7
-16 -42 -21 -77 -21 -128 -75 -201 -194 -262 -55 -28 -74 -32 -168 -36 -124
-5 -217 9 -297 44 -126 55 -172 110 -172 204 0 64 17 104 67 156 34 34 53 44
125 63 174 46 222 120 203 317 -8 85 -21 104 -71 104 -46 0 -58 -30 -49 -127
4 -48 3 -73 -4 -73 -5 0 -41 16 -79 36 l-69 36 -234 0 c-129 0 -251 -3 -271
-7 -21 -4 -38 -3 -38 1 0 5 43 62 94 128 184 231 293 417 304 514 6 59 14 69
71 86 64 20 109 19 158 -4z m-491 -65 c38 -24 54 -46 54 -74 0 -44 -22 -57
-73 -41 -72 21 -147 116 -104 133 19 9 100 -4 123 -18z m1243 6 c43 -28 -91
-116 -159 -105 -50 8 -80 25 -80 45 0 17 37 49 70 62 25 9 154 7 169 -2z m944
-107 c60 -36 161 -86 223 -110 162 -62 210 -89 277 -153 66 -62 187 -207 187
-224 0 -7 -31 -8 -94 -4 -105 7 -176 30 -302 97 -138 74 -165 92 -160 105 2 7
-4 22 -15 33 -10 12 -19 30 -19 41 0 13 -21 36 -57 63 -61 45 -98 85 -98 105
0 6 -4 15 -9 20 -5 5 -6 2 -1 -7 19 -36 -14 9 -40 53 -17 30 -22 47 -14 47 7
0 62 -30 122 -66z m761 -96 c27 -50 31 -88 8 -88 -16 0 -41 58 -40 92 1 19 -3
41 -7 48 -5 7 -4 11 1 7 5 -3 22 -30 38 -59z m-2966 -33 c2 -2 -23 -40 -55
-86 l-59 -84 -52 -3 c-29 -2 -52 -1 -52 2 0 8 67 123 89 153 21 28 26 30 74
25 29 -2 53 -6 55 -7z m-315 -321 c31 -10 57 -20 57 -24 0 -13 -77 -125 -96
-140 -10 -8 -6 0 9 18 33 41 35 56 5 48 -13 -3 -29 -6 -37 -6 -8 0 -11 -3 -8
-6 4 -4 -6 -14 -22 -23 -16 -9 -52 -43 -81 -76 -81 -94 -92 -87 -34 22 56 105
128 213 139 208 6 -2 36 -12 68 -21z m3349 -204 c20 -41 37 -79 37 -85 0 -5
-3 -4 -6 3 -2 6 -12 12 -20 12 -11 0 -14 -7 -10 -25 4 -25 4 -25 -22 -9 -157
102 -172 116 -140 120 5 1 12 2 15 3 4 0 1 8 -6 16 -10 12 -10 16 1 19 8 2 28
9 44 15 56 19 67 11 107 -69z m-2933 -25 c81 -14 96 -14 149 0 33 8 80 15 105
15 45 0 97 -16 97 -30 0 -9 -37 -20 -69 -20 -56 0 -131 -68 -131 -119 0 -16
-6 -21 -29 -21 -67 0 -87 10 -109 55 -26 54 -53 72 -128 87 -71 14 -70 14 -54
33 16 19 57 19 169 0z m-285 -113 c12 -11 51 -31 88 -47 52 -21 84 -44 135
-97 81 -81 92 -104 93 -184 0 -53 -4 -65 -26 -87 -29 -29 -120 -67 -160 -67
-64 0 -137 71 -164 158 -23 74 -27 240 -8 303 13 45 14 45 42 21z m2395 -110
c67 -45 187 -158 245 -230 84 -105 135 -204 157 -304 18 -87 33 -128 47 -128
4 0 25 5 46 10 l39 9 -6 -142 c-9 -196 -32 -282 -100 -384 -32 -50 -62 -58
-54 -16 20 104 -76 372 -177 498 -18 22 -46 69 -61 105 -33 74 -119 218 -179
300 -22 30 -39 59 -38 64 1 4 -1 13 -6 20 -5 6 -12 28 -16 49 -5 28 -3 39 8
43 8 3 19 32 27 70 7 35 16 64 19 64 4 0 26 -13 49 -28z m-2614 -159 c3 -32 8
-75 10 -95 3 -20 1 -40 -5 -43 -26 -16 -173 -258 -196 -324 l-13 -36 -1 55 c0
111 26 229 74 325 47 95 100 175 115 175 5 0 12 -26 16 -57z m3375 -273 c24
-95 40 -320 22 -320 -5 0 -19 -20 -30 -44 -18 -37 -24 -43 -46 -39 -23 5 -25
9 -20 47 3 22 -1 82 -9 131 -13 87 -13 92 9 156 13 36 26 89 30 118 4 29 10
49 15 44 4 -4 18 -46 29 -93z m-888 -32 c23 -35 55 -94 72 -133 27 -66 30 -80
34 -230 3 -135 1 -174 -17 -253 -31 -142 -131 -336 -233 -453 -111 -129 -327
-264 -579 -363 -103 -41 -108 -37 -51 39 75 101 108 151 137 215 17 36 33 67
36 70 4 3 12 24 18 48 7 23 16 40 20 37 5 -3 11 12 14 33 7 53 12 70 22 79 4
4 5 2 1 -4 -4 -7 -5 -13 -2 -13 3 0 10 10 17 21 9 17 8 20 -2 14 -9 -6 -10 -4
-3 6 5 8 9 25 10 39 1 14 7 67 13 119 6 52 10 96 8 97 -2 2 20 28 49 58 32 34
62 80 79 120 15 37 31 66 36 66 16 0 49 -54 68 -113 26 -81 41 -174 41 -267 0
-41 3 -85 6 -97 7 -24 39 -36 53 -19 15 18 53 138 47 151 -2 7 0 17 6 23 19
19 12 218 -10 312 -18 73 -53 183 -77 243 -5 11 -3 17 5 17 40 0 120 99 120
149 0 20 9 51 16 51 2 0 22 -28 46 -62z m-2300 -53 c9 -21 8 -36 -7 -78 -10
-29 -21 -56 -25 -62 -7 -10 -19 -53 -25 -90 -17 -111 -17 -114 15 -170 17 -30
54 -82 82 -115 l50 -60 -53 -53 c-33 -32 -64 -53 -79 -54 -14 -1 -41 -7 -62
-14 -28 -11 -37 -20 -41 -44 -3 -16 -10 -43 -17 -60 l-11 -29 -24 29 -24 30 4
-89 c2 -49 7 -108 11 -131 3 -24 3 -53 -1 -65 l-7 -22 -15 21 c-24 36 -62 158
-74 244 -39 280 45 615 194 774 64 68 91 77 109 38z m3136 -369 c13 -30 -2
-96 -22 -96 -10 0 -14 15 -14 53 0 28 2 55 5 60 8 13 20 7 31 -17z m-540 -61
c11 -33 23 -71 26 -85 2 -14 10 -38 16 -55 7 -16 14 -84 17 -150 5 -144 8
-160 33 -185 26 -26 64 -25 107 1 49 31 56 16 48 -106 -16 -259 -77 -400 -245
-566 -102 -101 -178 -159 -276 -207 -112 -56 -114 -50 -17 47 218 219 347 453
366 662 6 62 3 70 -31 88 -38 20 -56 -7 -101 -147 -22 -70 -59 -158 -81 -197
-99 -167 -279 -355 -555 -577 -93 -75 -191 -156 -216 -181 -119 -116 -221
-296 -266 -472 -16 -63 -35 -115 -44 -122 -18 -14 -28 -49 -36 -130 -3 -29 -9
-53 -13 -53 -12 0 -6 -25 9 -44 7 -9 11 -23 7 -31 -3 -8 -1 -15 5 -15 6 0 9
-7 5 -15 -3 -8 -2 -15 2 -15 4 0 13 -9 20 -21 12 -19 11 -19 -8 -9 -28 15 -94
118 -120 188 -46 123 -54 178 -54 377 0 189 0 191 33 290 55 164 124 289 234
425 90 110 120 133 329 253 105 60 225 134 267 164 166 124 317 309 396 487
59 134 105 319 105 424 0 65 9 60 38 -23z m-994 -82 c17 -78 21 -238 7 -287
-53 -184 -139 -374 -163 -360 -7 4 -8 2 -4 -5 8 -12 -60 -101 -146 -192 -23
-26 -65 -72 -91 -103 -27 -31 -53 -53 -59 -50 -6 4 -8 2 -5 -3 8 -13 -17 -36
-27 -26 -4 4 -4 0 0 -10 3 -10 1 -17 -5 -17 -6 0 -11 -7 -11 -15 0 -8 -4 -15
-9 -15 -4 0 -22 -23 -39 -51 -20 -32 -36 -48 -44 -43 -8 5 -9 2 -5 -10 4 -10
3 -15 -3 -11 -6 3 -10 15 -10 26 0 12 -7 19 -19 19 -11 0 -22 6 -25 13 -3 6
-3 1 0 -12 5 -17 3 -21 -7 -16 -9 6 -11 4 -6 -8 3 -9 1 -19 -4 -23 -11 -6 -6
-85 7 -118 4 -11 2 -16 -6 -14 -8 2 -14 -8 -16 -22 -1 -14 -9 -52 -17 -85 -9
-33 -18 -71 -20 -85 -11 -76 -47 184 -47 339 0 110 35 355 61 435 56 167 173
347 323 496 58 58 106 110 106 115 0 6 7 18 14 28 13 16 14 16 19 -4 4 -16 2
-19 -10 -15 -10 4 -13 2 -10 -8 3 -8 2 -16 -3 -18 -4 -2 -11 -19 -13 -38 -5
-32 -5 -34 9 -16 22 31 16 10 -15 -52 -30 -58 -68 -111 -179 -247 -61 -76
-107 -152 -123 -208 -5 -19 -4 -25 3 -21 8 5 9 1 5 -10 -4 -9 21 9 56 42 34
33 105 97 157 144 132 117 202 223 258 389 23 68 46 156 52 194 6 39 14 77 16
85 8 23 29 -23 48 -107z m1526 28 c0 -6 -4 -13 -10 -16 -5 -3 -10 1 -10 9 0 9
5 16 10 16 6 0 10 -4 10 -9z m-2795 -286 c28 -29 65 -60 83 -69 38 -20 50 -42
32 -59 -10 -10 -12 -8 -7 6 4 11 3 16 -4 12 -6 -4 -8 -13 -5 -21 7 -18 -14
-65 -25 -58 -5 3 -6 -1 -4 -8 3 -8 -8 -40 -23 -73 -16 -33 -33 -71 -37 -85
-13 -43 -39 -95 -53 -106 -8 -5 -13 -17 -11 -25 3 -17 -31 -89 -44 -89 -4 0
-5 -9 -2 -20 4 -12 2 -20 -5 -20 -7 0 -10 -8 -7 -19 6 -24 -5 -29 -60 -27 -35
1 -43 -2 -43 -16 0 -10 -4 -18 -10 -18 -5 0 -10 -7 -10 -15 0 -8 -7 -15 -15
-15 -14 0 -20 -24 -16 -59 2 -7 -2 -10 -8 -7 -6 4 -7 -4 -1 -23 8 -29 5 -134
-5 -183 -4 -14 -1 -29 5 -33 8 -5 8 -10 0 -20 -18 -22 28 -217 63 -262 6 -9 6
-13 -1 -13 -16 0 -66 68 -99 135 -119 238 -137 579 -47 844 20 58 50 133 67
166 37 76 119 187 165 225 43 35 55 31 127 -45z m2710 17 c18 -85 22 -385 6
-470 -13 -68 -49 -185 -73 -239 -28 -64 -100 -182 -152 -251 -50 -66 -143
-152 -163 -152 -7 0 -18 -9 -25 -20 -7 -11 -17 -20 -23 -20 -5 0 -22 -10 -36
-23 -105 -89 -155 -127 -167 -127 -5 0 -13 -7 -16 -16 -3 -8 -10 -13 -15 -10
-5 4 -11 2 -13 -2 -5 -14 -88 -66 -223 -142 -71 -40 -159 -93 -195 -118 -77
-54 -197 -167 -215 -202 -20 -38 -51 -71 -59 -62 -4 4 -7 3 -6 -3 4 -20 0 -32
-19 -54 -11 -13 -22 -28 -24 -34 -3 -9 -11 -8 -28 2 -24 14 -24 14 -6 -6 16
-19 17 -23 3 -54 -15 -34 -15 -34 -11 -5 6 38 -12 21 -19 -19 -2 -16 -3 9 -1
58 1 48 8 93 14 101 6 7 8 15 5 18 -10 11 16 89 28 82 6 -4 8 -3 5 3 -13 20
24 113 74 187 36 55 79 100 151 160 116 96 170 126 284 155 164 42 273 91 409
186 219 153 321 283 397 508 30 89 31 98 35 307 4 239 5 246 30 276 21 27 40
21 48 -14z m-2345 -276 c0 -2 -7 -7 -16 -10 -8 -3 -12 -2 -9 4 6 10 25 14 25
6z m-40 -40 c0 -2 -8 -10 -17 -17 -16 -13 -17 -12 -4 4 13 16 21 21 21 13z
m65 -257 c-45 -189 -54 -426 -24 -659 16 -125 18 -131 74 -245 30 -61 55 -115
55 -120 0 -6 9 -27 20 -48 11 -20 18 -37 15 -37 -3 0 2 -12 11 -27 11 -19 11
-22 2 -11 -17 20 -28 14 -28 -14 0 -13 -8 -18 -30 -18 -27 0 -30 -3 -30 -30 0
-23 -4 -30 -20 -30 -16 0 -20 -7 -20 -35 0 -28 -4 -35 -19 -35 -11 0 -23 -4
-26 -10 -3 -5 -2 -10 2 -10 5 0 14 -9 21 -20 13 -21 12 -21 -15 -4 -71 44
-168 133 -207 188 -56 78 -67 101 -107 216 -31 91 -32 101 -32 245 0 129 4
163 26 248 46 174 170 397 299 541 65 74 69 65 33 -85z m-257 51 c-7 -11 -17
-20 -22 -20 -5 0 -1 9 9 20 10 11 20 20 22 20 2 0 -2 -9 -9 -20z m932 -355 c0
-3 -29 -37 -65 -75 -156 -166 -228 -343 -261 -639 l-19 -165 -19 60 c-14 44
-19 89 -20 179 0 138 22 242 80 362 43 91 162 220 236 257 52 26 68 31 68 21z"/>
<path d="M4526 8305 c4 -8 8 -15 10 -15 2 0 4 7 4 15 0 8 -4 15 -10 15 -5 0
-7 -7 -4 -15z"/>
<path d="M4470 8293 c1 -14 30 -48 30 -34 0 7 -7 19 -15 27 -8 9 -15 12 -15 7z"/>
<path d="M4815 8109 c-4 -6 -5 -12 -2 -15 2 -3 7 2 10 11 7 17 1 20 -8 4z"/>
<path d="M6486 6811 c-3 -5 1 -14 8 -20 12 -10 13 -8 9 8 -6 23 -9 25 -17 12z"/>
<path d="M4372 5674 c-47 -33 -15 -89 46 -82 22 2 28 9 30 34 3 32 -18 64 -41
64 -7 0 -23 -7 -35 -16z"/>
<path d="M4206 5665 c-24 -24 -20 -59 8 -74 48 -26 88 5 70 56 -11 33 -53 43
-78 18z"/>
<path d="M4203 5485 c-45 -31 -28 -95 26 -95 55 0 81 65 39 94 -28 20 -38 20
-65 1z"/>
<path d="M4350 5470 c-19 -36 20 -84 57 -69 58 21 49 89 -12 89 -24 0 -37 -6
-45 -20z"/>
<path d="M5920 6264 c0 -2 9 -8 20 -14 11 -6 20 -7 20 -2 0 6 -9 12 -20 15
-11 3 -20 3 -20 1z"/>
<path d="M3375 5646 c-18 -28 -11 -52 17 -60 49 -12 82 50 39 74 -29 15 -39
13 -56 -14z"/>
<path d="M3385 5484 c-9 -9 -15 -26 -13 -38 2 -17 10 -21 43 -21 34 0 40 3 43
23 7 46 -40 69 -73 36z"/>
<path d="M3738 4283 c6 -2 18 -2 25 0 6 3 1 5 -13 5 -14 0 -19 -2 -12 -5z"/>
<path d="M4164 2727 c-4 -10 -2 -23 3 -28 14 -14 24 13 13 32 -7 11 -10 10
-16 -4z"/>
<path d="M671 8201 c-32 -59 -59 -329 -55 -536 6 -249 52 -373 187 -501 43
-41 77 -77 75 -80 -8 -8 -192 75 -219 99 -13 12 -40 46 -58 74 -18 29 -37 50
-42 47 -27 -16 6 -364 52 -553 43 -174 55 -192 170 -271 53 -36 91 -66 84 -68
-14 -3 -159 22 -187 33 -10 4 -18 4 -18 -1 0 -46 167 -380 244 -488 63 -88
143 -165 215 -206 44 -25 60 -41 61 -56 0 -57 66 -229 124 -326 87 -147 161
-202 353 -263 79 -24 81 -26 132 -95 57 -77 135 -149 203 -187 67 -39 426
-227 539 -284 110 -55 140 -58 193 -24 22 15 26 25 26 64 0 58 -23 96 -50 81
-27 -15 -137 -25 -125 -12 6 6 34 13 64 14 47 3 55 7 58 26 2 15 -1 21 -8 17
-6 -4 -8 -13 -5 -21 3 -8 1 -14 -4 -14 -6 0 -10 11 -10 25 0 14 5 25 10 25 7
0 9 15 6 38 -10 71 -26 370 -20 385 3 9 -2 16 -14 19 -24 7 -56 73 -56 119 0
28 18 67 83 173 l83 137 -56 59 c-53 55 -56 62 -56 108 0 37 8 64 30 103 16
30 53 101 80 159 28 58 64 131 80 162 17 31 30 61 30 66 0 5 -16 30 -35 55
-28 37 -42 46 -77 52 -24 4 -92 28 -153 55 -227 99 -306 131 -314 125 -5 -2
-11 2 -14 10 -7 16 -54 42 -245 132 -74 35 -139 60 -145 56 -7 -3 -9 -3 -5 2
10 11 -60 47 -74 39 -6 -4 -8 -3 -5 3 6 9 -60 49 -75 45 -5 -1 -8 2 -8 7 0 5
-14 13 -32 16 -17 4 -40 15 -50 24 -10 10 -38 27 -63 40 -24 12 -47 27 -51 32
-3 5 -14 7 -25 4 -13 -4 -18 -2 -15 7 3 8 -28 34 -77 66 -45 29 -95 64 -112
77 -16 14 -70 58 -120 98 -49 40 -149 130 -221 200 -142 137 -154 157 -154
258 l0 53 118 -115 c64 -64 160 -149 212 -190 181 -142 457 -335 565 -394 28
-15 61 -35 75 -45 23 -16 146 -81 455 -239 173 -89 340 -166 447 -206 l88 -33
-6 87 c-7 96 -19 115 -92 140 -55 20 -506 246 -667 335 -271 150 -578 351
-721 471 -110 92 -286 270 -355 359 -61 78 -118 171 -184 301 -23 45 -49 56
-64 26z m395 -1419 c296 -181 623 -350 870 -448 80 -32 101 -56 110 -124 7
-51 6 -54 -10 -41 -9 8 -31 16 -47 18 -16 1 -44 10 -60 19 -17 8 -65 27 -107
40 -101 33 -300 119 -387 167 -38 21 -95 50 -125 64 -30 15 -57 30 -58 35 -2
4 -7 6 -12 3 -11 -7 -61 20 -53 28 3 4 -1 7 -10 7 -9 0 -17 4 -17 9 0 8 -54
38 -72 41 -4 0 -18 11 -32 23 -13 13 -37 29 -53 37 -15 8 -36 21 -46 29 -17
14 -32 9 -32 -10 0 -5 -4 -9 -10 -9 -5 0 -10 6 -10 12 0 7 -8 14 -19 16 -13 3
-16 0 -11 -9 5 -8 4 -10 -4 -5 -6 4 -9 12 -6 17 4 5 2 9 -2 9 -15 0 -81 152
-88 202 l-6 47 81 -47 c45 -26 142 -84 216 -130z m254 -472 c0 -5 -5 -10 -11
-10 -5 0 -7 5 -4 10 3 6 8 10 11 10 2 0 4 -4 4 -10z m-283 -125 c206 -103 799
-304 1003 -340 52 -9 58 -17 75 -94 l7 -34 -68 6 c-94 8 -157 18 -169 27 -5 5
-26 11 -46 14 -20 3 -47 10 -60 15 -13 5 -28 10 -34 11 -5 1 -14 4 -20 5 -10
3 -99 24 -126 29 -8 2 -21 6 -29 9 -20 7 -78 18 -62 11 6 -3 12 -15 12 -25 0
-11 -4 -18 -9 -15 -16 10 -41 -5 -41 -24 0 -11 -3 -21 -8 -23 -16 -10 -62 6
-67 24 -4 10 -11 19 -16 19 -6 0 -8 -4 -4 -9 3 -5 -8 -3 -24 5 -16 8 -32 21
-35 30 -3 8 -10 13 -16 9 -5 -3 -40 17 -77 46 -37 28 -72 53 -78 56 -32 12
-139 149 -170 218 -19 41 -33 75 -31 75 1 0 43 -20 93 -45z m1224 -93 c-6 -2
-11 -14 -11 -27 0 -13 -5 -27 -11 -31 -8 -5 -10 3 -7 24 2 17 1 29 -4 26 -9
-6 -11 17 -2 40 5 14 9 13 26 -6 11 -13 15 -24 9 -26z m-801 -581 c75 -16 102
-21 185 -32 43 -5 111 -17 150 -25 39 -9 148 -18 247 -21 l177 -6 17 -46 c10
-25 22 -52 28 -60 9 -12 7 -13 -9 -5 -11 5 -70 8 -132 6 -98 -3 -113 -5 -118
-22 -3 -10 -15 -20 -25 -23 -15 -4 -20 -14 -20 -41 l0 -36 -74 0 c-40 0 -92 7
-115 15 -22 8 -41 12 -41 10 0 -5 -99 31 -137 50 -18 9 -33 21 -33 26 0 6 -4
8 -8 5 -5 -3 -27 8 -50 25 -39 28 -64 67 -103 157 -18 40 -18 43 -1 38 9 -3
37 -10 62 -15z m778 -216 c2 -1 -8 -5 -22 -7 -16 -3 -27 0 -30 9 -4 10 1 12
22 7 15 -4 28 -8 30 -9z m82 -30 c20 -25 4 -29 -21 -6 -18 16 -19 21 -7 21 9
0 21 -7 28 -15z m-347 -227 c54 -42 68 -44 182 -28 88 13 89 13 213 40 56 12
109 20 116 17 7 -3 18 -19 24 -35 l10 -29 -112 -27 c-61 -15 -149 -33 -195
-41 -78 -14 -86 -14 -110 2 -14 10 -30 16 -35 15 -4 -2 -14 3 -22 9 -12 10
-13 9 -8 -6 6 -14 4 -16 -7 -10 -28 16 -48 38 -43 46 3 5 -2 9 -11 9 -9 0 -14
4 -10 9 3 6 0 13 -7 18 -20 12 -65 67 -48 58 8 -5 37 -26 63 -47z m128 -128
c5 0 9 -4 9 -10 0 -14 -13 -12 -36 6 -17 14 -17 15 -1 10 10 -3 23 -6 28 -6z
m34 -30 c3 -5 1 -10 -4 -10 -6 0 -11 5 -11 10 0 6 2 10 4 10 3 0 8 -4 11 -10z
m385 -180 c-14 -4 -34 -8 -45 -8 -16 0 -15 2 5 8 14 4 34 8 45 8 16 0 15 -2
-5 -8z"/>
<path d="M866 6735 c-3 -8 -1 -15 4 -15 13 0 22 18 11 24 -5 3 -11 -1 -15 -9z"/>
<path d="M1450 5850 c-12 -7 -10 -9 7 -7 12 0 19 5 17 9 -6 10 -6 10 -24 -2z"/>
<path d="M9012 8183 c-10 -16 -33 -57 -51 -92 -90 -175 -154 -264 -291 -402
-171 -172 -307 -270 -605 -434 -88 -48 -191 -107 -230 -131 -38 -23 -104 -56
-145 -72 -41 -17 -167 -72 -280 -122 -113 -51 -243 -109 -290 -130 -285 -126
-274 -120 -278 -162 -4 -38 5 -107 16 -125 12 -20 268 83 702 281 406 186 573
277 920 499 181 116 263 180 368 285 50 51 92 87 92 79 0 -50 -28 -148 -61
-209 -5 -10 -9 -24 -9 -32 0 -7 -6 -14 -12 -13 -46 1 -58 -4 -58 -25 0 -19 -2
-20 -11 -8 -9 13 -10 13 -6 0 2 -8 12 -15 22 -15 10 0 20 -6 23 -14 3 -8 0
-11 -7 -7 -7 5 -13 -4 -17 -23 -4 -17 -10 -31 -15 -31 -5 0 -25 -18 -45 -40
-23 -25 -45 -40 -60 -40 -21 0 -23 2 -12 20 15 23 8 33 -16 24 -11 -4 -16 -14
-13 -25 4 -15 0 -19 -21 -19 -23 1 -25 2 -9 11 9 5 17 14 17 20 0 8 -58 -37
-167 -130 -18 -16 -33 -26 -33 -24 0 2 -34 -19 -75 -48 -41 -28 -75 -55 -75
-59 0 -3 -6 -7 -12 -7 -7 0 -38 -16 -69 -36 -31 -20 -84 -50 -118 -67 -34 -17
-59 -36 -56 -41 4 -5 15 -5 27 2 17 9 24 8 33 -5 21 -28 44 -19 51 22 4 20 11
43 17 50 11 14 31 16 22 2 -4 -6 -1 -9 7 -8 7 2 16 12 19 23 3 11 13 19 22 19
9 -1 15 3 14 9 -1 6 7 13 18 15 11 2 28 13 38 23 9 10 23 16 31 13 8 -3 16 3
19 15 7 28 44 27 68 -1 11 -11 22 -18 26 -14 4 4 1 11 -6 15 -11 7 -9 13 8 30
15 15 28 19 51 15 30 -7 34 -15 32 -72 -1 -13 3 -20 9 -16 6 3 8 12 6 18 -3 7
-1 19 5 27 8 11 9 10 4 -3 -3 -10 0 -18 6 -18 7 0 -1 -13 -17 -30 -16 -16 -30
-28 -32 -26 -2 2 -15 -6 -28 -18 -26 -24 -28 -26 -106 -84 -31 -23 -58 -42
-61 -42 -3 0 -30 -16 -59 -36 -30 -20 -79 -49 -110 -64 l-55 -29 -3 52 c-1 29
-6 54 -12 55 -5 2 -9 9 -9 16 0 18 -40 36 -72 32 -31 -4 -136 -44 -157 -60 -7
-6 -19 -11 -25 -11 -26 -1 -125 -39 -116 -45 5 -3 -5 -7 -23 -7 -17 -1 -117
-41 -222 -88 -104 -48 -219 -98 -255 -112 -36 -13 -76 -31 -88 -40 -13 -8 -62
-27 -109 -43 -47 -16 -87 -30 -89 -33 -7 -7 7 -102 17 -118 8 -12 10 -12 18 0
7 11 10 9 16 -8 7 -23 -1 -44 -15 -36 -12 8 2 -38 15 -50 24 -20 25 -44 2 -51
-12 -5 -25 -8 -29 -9 -4 0 -20 -15 -36 -34 -26 -32 -28 -38 -20 -82 5 -26 26
-84 46 -129 l38 -81 1 42 c1 23 9 49 18 59 25 27 118 83 112 66 -6 -15 17 -16
30 -1 4 4 3 5 -3 2 -17 -10 -12 22 7 39 13 12 19 12 25 3 4 -7 3 -10 -3 -6 -6
4 -16 0 -23 -8 -9 -10 -9 -15 -1 -15 6 0 11 -7 11 -15 0 -8 5 -15 11 -15 5 0
7 5 4 10 -3 6 -1 10 4 10 6 0 11 -9 11 -20 0 -13 7 -20 20 -20 11 0 20 -4 20
-10 0 -5 9 -10 19 -10 14 0 20 -9 24 -37 5 -45 -18 -72 -83 -93 -22 -7 -40
-19 -40 -26 0 -21 -74 -28 -109 -9 -18 9 -29 20 -26 24 3 5 -1 11 -8 14 -10 4
-8 -10 6 -51 14 -43 16 -61 8 -80 -6 -13 -9 -27 -7 -31 12 -18 -61 -72 -146
-108 -35 -15 -65 -28 -67 -29 -2 -2 6 -22 17 -46 20 -41 36 -118 35 -163 -1
-11 3 -52 8 -90 8 -59 -1 -334 -13 -405 -2 -8 0 -16 5 -17 4 -2 16 -12 28 -24
14 -14 28 -19 43 -15 13 3 30 0 40 -7 14 -10 1 -12 -73 -10 l-89 3 -16 -47
c-9 -26 -16 -61 -16 -78 0 -28 4 -33 48 -47 98 -34 115 -33 230 15 59 24 152
61 207 82 457 174 520 210 615 348 27 39 54 77 59 83 5 7 54 26 108 44 238 78
323 155 411 374 18 43 35 102 38 130 6 48 9 53 64 94 161 118 249 229 356 447
40 82 82 176 93 208 23 67 30 64 -100 41 -49 -8 -95 -14 -101 -12 -5 2 12 16
38 30 63 35 159 111 180 142 23 37 89 237 112 346 36 164 64 334 60 364 -3 28
-4 28 -36 -23 -33 -50 -81 -90 -152 -125 -53 -27 -133 -56 -138 -51 -3 2 41
52 97 111 56 59 113 129 127 155 73 144 85 495 27 794 -21 110 -36 127 -71 78z
m-165 -805 c-3 -8 -6 -5 -6 6 -1 11 2 17 5 13 3 -3 4 -12 1 -19z m-112 -188
c3 -5 1 -10 -4 -10 -6 0 -11 5 -11 10 0 6 2 10 4 10 3 0 8 -4 11 -10z m-185
-61 c0 -5 -4 -9 -8 -9 -5 0 -9 7 -9 15 0 8 4 12 9 9 4 -3 8 -9 8 -15z m70 -53
c0 -3 -4 -8 -10 -11 -5 -3 -10 -1 -10 4 0 6 5 11 10 11 6 0 10 -2 10 -4z m20
-19 c0 -2 -11 -14 -25 -27 -14 -13 -25 -21 -25 -17 0 3 10 15 22 27 21 19 28
24 28 17z m238 -214 c-12 -44 -74 -171 -94 -194 -9 -10 -24 -14 -39 -11 -28 5
-34 -15 -12 -37 10 -10 6 -11 -17 -7 -16 3 -33 10 -37 17 -4 8 -19 3 -45 -16
-22 -15 -31 -25 -21 -22 9 4 17 1 17 -4 0 -6 -11 -9 -24 -7 -19 4 -22 1 -18
-14 2 -10 -2 -25 -9 -34 -7 -9 -14 -33 -14 -55 -1 -33 1 -37 14 -27 9 6 4 -1
-11 -15 -15 -14 -24 -28 -20 -31 3 -4 -1 -4 -11 0 -11 4 -17 1 -18 -7 -1 -17
-66 -72 -85 -72 -8 0 -14 -4 -14 -9 0 -5 -35 -25 -77 -44 -43 -19 -94 -43
-113 -54 -19 -10 -44 -20 -55 -22 -11 -1 -23 -7 -26 -11 -3 -4 -19 -9 -35 -11
-16 -2 -33 -4 -37 -5 -5 0 -6 -5 -3 -10 4 -5 -3 -7 -14 -4 -21 6 -18 18 3 18
7 0 13 19 15 43 2 23 5 42 8 42 12 0 34 -30 35 -47 1 -13 3 -11 9 7 4 14 8 19
9 13 1 -7 6 -13 11 -13 6 0 10 18 10 40 0 22 -4 40 -10 40 -5 0 -10 7 -10 16
0 15 9 16 71 11 l71 -6 -4 34 c-2 18 0 32 4 29 12 -8 74 22 96 46 34 36 15 43
-38 13 -27 -15 -46 -31 -43 -37 3 -5 1 -6 -4 -3 -6 4 -75 -20 -154 -54 -136
-57 -523 -174 -541 -163 -12 8 -9 102 3 110 6 4 25 10 43 14 54 14 327 116
431 163 134 59 213 100 385 198 221 126 409 227 422 228 3 1 2 -16 -4 -36z
m-804 -188 c-3 -6 -21 -19 -40 -28 -40 -19 -48 -21 -40 -8 4 5 0 12 -6 15 -7
3 -2 3 12 1 30 -6 50 5 55 31 2 10 4 21 4 24 1 3 5 -1 10 -9 5 -8 7 -19 5 -26z
m-468 -144 c5 -6 29 -11 54 -13 l45 -3 -135 -60 c-74 -33 -140 -59 -147 -59
-7 1 -11 -3 -10 -9 1 -6 -7 -12 -19 -13 -11 0 -21 5 -21 12 0 8 7 14 16 15 9
1 5 5 -9 9 -24 8 -24 8 -2 9 17 1 22 7 22 27 0 39 22 54 78 54 45 0 50 2 45
20 -5 17 0 20 34 20 21 0 43 -4 49 -9z m1034 -51 c0 -5 -5 -10 -11 -10 -5 0
-7 5 -4 10 3 6 8 10 11 10 2 0 4 -4 4 -10z m-1276 -116 c3 -8 2 -12 -4 -9 -6
3 -10 10 -10 16 0 14 7 11 14 -7z m876 -14 c0 -5 -4 -10 -10 -10 -5 0 -10 5
-10 10 0 6 5 10 10 10 6 0 10 -4 10 -10z m-833 -209 c-4 -32 -15 -80 -25 -105
l-18 -46 -13 48 c-7 26 -14 52 -16 59 -4 13 -22 12 -44 -1 -9 -6 -12 -5 -10 3
5 14 111 101 123 101 5 0 6 -26 3 -59z m1307 27 c-17 -56 -69 -129 -141 -198
-102 -98 -130 -119 -154 -115 -11 2 -17 0 -14 -6 9 -13 -9 -11 -25 4 -12 10
-12 9 0 -6 12 -16 12 -20 -1 -28 -8 -5 -17 -9 -21 -10 -20 -4 -25 -6 -48 -19
-14 -7 -26 -13 -27 -12 -9 6 -23 1 -19 -7 3 -5 -6 -8 -19 -8 -14 0 -25 3 -25
8 0 5 5 9 10 9 6 0 10 15 10 34 0 28 -4 35 -22 39 -18 3 -16 5 8 6 30 1 99 29
91 37 -2 2 -21 -2 -43 -9 -21 -8 -57 -17 -79 -21 -22 -4 -46 -12 -52 -18 -7
-6 -13 -7 -13 -4 0 4 -5 4 -12 0 -6 -4 -23 -9 -37 -10 -14 -2 -55 -10 -91 -19
-36 -8 -74 -17 -85 -19 -70 -16 -111 -29 -123 -38 -10 -9 -16 -8 -23 3 -5 8
-9 10 -9 4 0 -6 -51 -11 -125 -13 l-125 -4 0 45 c0 24 6 49 13 54 6 6 39 13
72 17 32 4 109 18 170 32 60 13 121 27 135 29 94 17 449 127 611 189 107 41
200 75 207 76 9 0 11 -7 6 -22z m-897 -74 c-3 -3 -12 -4 -19 -1 -8 3 -5 6 6 6
11 1 17 -2 13 -5z m-557 -18 c0 -3 -4 -8 -10 -11 -5 -3 -10 -1 -10 4 0 6 5 11
10 11 6 0 10 -2 10 -4z m-67 -41 c-3 -9 -8 -14 -10 -11 -3 3 -2 9 2 15 9 16
15 13 8 -4z m368 -8 c-10 -9 -11 -8 -5 6 3 10 9 15 12 12 3 -3 0 -11 -7 -18z
m629 -197 c5 7 9 -2 12 -24 l4 -36 -22 21 c-14 13 -20 27 -16 37 4 12 7 13 10
3 3 -10 6 -10 12 -1z m-138 -52 c14 12 58 6 58 -8 0 -4 -8 -11 -17 -15 -16 -7
-14 -9 7 -14 17 -5 29 -2 38 8 8 9 11 10 7 4 -3 -7 0 -13 7 -14 7 0 3 -5 -9
-11 -13 -6 -23 -15 -23 -20 0 -4 -18 -8 -40 -8 -22 0 -40 -5 -40 -11 0 -5 -5
-7 -12 -3 -9 6 -9 9 0 12 14 4 16 42 2 42 -5 0 -10 12 -10 28 0 20 3 23 9 13
7 -11 13 -12 23 -3z m-62 -90 c0 -4 -4 -8 -9 -8 -6 0 -12 4 -15 8 -3 5 1 9 9
9 8 0 15 -4 15 -9z m-550 -54 c-1 -4 4 -11 12 -15 9 -6 2 -9 -20 -9 -34 0 -35
5 -8 39 10 12 20 3 16 -15z m840 -117 c0 -7 -11 -29 -25 -49 -14 -20 -25 -42
-25 -47 0 -6 -8 -11 -17 -12 -11 0 -13 -3 -5 -6 17 -7 5 -23 -19 -23 -13 0
-18 -4 -13 -12 5 -8 0 -9 -15 -5 -18 4 -20 3 -10 -9 9 -11 8 -14 -4 -14 -8 0
-20 -7 -27 -15 -7 -8 -27 -17 -46 -21 -19 -3 -37 -10 -40 -15 -3 -5 -13 -9
-23 -9 -9 0 -37 -9 -60 -21 -48 -23 -66 -28 -128 -36 -39 -5 -43 -4 -43 16 0
11 -4 21 -10 21 -5 0 -10 -9 -10 -20 0 -14 -6 -20 -22 -19 -18 0 -19 2 -7 7
12 5 14 13 8 30 -5 12 -13 22 -19 22 -6 0 -8 -4 -5 -10 3 -5 1 -10 -4 -10 -6
0 -11 9 -11 20 0 15 -7 20 -27 21 -16 1 -48 2 -73 4 -25 1 -35 0 -22 -2 38 -8
26 -31 -20 -37 -56 -8 -118 -4 -118 6 0 4 -7 8 -16 8 -8 0 -12 -4 -9 -10 3 -5
1 -10 -5 -10 -7 0 -10 7 -6 15 3 8 -2 19 -12 24 -10 6 -12 11 -4 11 25 0 -1
50 -27 50 -6 0 -3 18 7 42 l18 41 157 3 c144 4 307 23 572 68 106 18 165 20
165 3z m-922 -198 c-3 -8 -7 -3 -11 10 -4 17 -3 21 5 13 5 -5 8 -16 6 -23z
m-76 -64 c-4 -24 -21 -33 -36 -18 -5 5 28 40 40 43 1 0 -1 -11 -4 -25z m-402
-5 c0 -5 -9 -10 -20 -10 -11 0 -20 5 -20 10 0 6 9 10 20 10 11 0 20 -4 20 -10z
m43 3 c-7 -2 -19 -2 -25 0 -7 3 -2 5 12 5 14 0 19 -2 13 -5z m897 -138 c0 -9
-123 -65 -140 -65 -18 0 26 24 90 50 25 10 46 18 48 19 1 1 2 -1 2 -4z m-568
-39 c35 -8 86 -17 113 -20 28 -4 61 -8 75 -11 14 -3 73 -9 133 -15 145 -14
143 -13 104 -66 -35 -48 -48 -55 -42 -23 5 25 15 38 15 20 0 -7 5 -9 10 -6 15
9 12 25 -4 25 -7 0 -21 -10 -31 -23 -12 -17 -24 -22 -43 -19 -19 2 -34 -4 -51
-22 -14 -14 -32 -26 -40 -26 -9 0 -25 -7 -35 -15 -11 -8 -32 -15 -48 -15 -21
0 -28 5 -28 20 0 17 -7 20 -50 20 -43 0 -50 3 -50 19 0 14 -5 18 -20 14 -23
-6 -27 -33 -6 -33 8 0 18 -5 22 -12 5 -8 2 -9 -12 -4 -18 8 -41 14 -56 15 -5
1 -8 10 -8 21 0 11 -4 20 -9 20 -5 0 -8 11 -8 25 0 32 -11 44 -23 25 -5 -8
-12 -11 -17 -7 -10 10 16 27 43 27 11 0 25 -5 32 -12 9 -9 12 -9 12 0 0 6 -19
17 -42 23 -55 16 -53 14 -34 44 19 29 17 29 98 11z m-197 -126 c3 -5 -3 -10
-15 -10 -12 0 -18 5 -15 10 3 6 10 10 15 10 5 0 12 -4 15 -10z m103 -30 c3 -9
-2 -11 -19 -7 -13 4 -28 7 -32 7 -5 0 -5 4 -2 10 8 13 48 6 53 -10z m-18 -196
c14 -3 38 -11 54 -17 l28 -10 -45 -18 c-49 -19 -217 -25 -217 -8 0 5 5 9 11 9
5 0 7 5 4 10 -3 6 1 10 9 10 20 0 25 42 6 57 -9 7 15 4 55 -8 39 -10 81 -22
95 -25z m-205 -44 c8 -13 -5 -13 -25 0 -13 8 -13 10 2 10 9 0 20 -4 23 -10z"/>
<path d="M8417 6469 c-9 -6 -15 -14 -12 -19 8 -13 32 -2 32 15 0 8 -1 15 -1
15 -1 0 -9 -5 -19 -11z"/>
<path d="M7695 5311 c-49 -6 -49 -6 -15 -12 21 -4 45 -1 60 7 14 7 21 13 15
12 -5 -1 -32 -4 -60 -7z"/>
<path d="M7308 4923 c6 -2 18 -2 25 0 6 3 1 5 -13 5 -14 0 -19 -2 -12 -5z"/>
<path d="M8747 7299 c7 -7 15 -10 18 -7 3 3 -2 9 -12 12 -14 6 -15 5 -6 -5z"/>
<path d="M8448 6903 c7 -3 16 -2 19 1 4 3 -2 6 -13 5 -11 0 -14 -3 -6 -6z"/>
<path d="M8105 6710 c3 -5 11 -10 16 -10 6 0 7 5 4 10 -3 6 -11 10 -16 10 -6
0 -7 -4 -4 -10z"/>
<path d="M6730 4382 c0 -36 2 -40 22 -34 12 3 37 15 55 28 l32 22 -28 5 c-16
3 -40 9 -55 13 -25 6 -26 4 -26 -34z"/>
</g>
</svg>
